<?xml version="1.0" encoding="UTF-8" standalone="no"?>
<!DOCTYPE svg PUBLIC "-//W3C//DTD SVG 1.1//EN" "http://www.w3.org/Graphics/SVG/1.1/DTD/svg11.dtd">
<!-- Created with Vectornator (http://vectornator.io/) -->
<svg height="100%" stroke-miterlimit="10" style="fill-rule:nonzero;clip-rule:evenodd;stroke-linecap:round;stroke-linejoin:round;" version="1.1" viewBox="0 0 511.999 511.999" width="100%" xml:space="preserve" xmlns="http://www.w3.org/2000/svg" xmlns:xlink="http://www.w3.org/1999/xlink">
<defs/>
<g id="Untitled">
<path d="M10.199 250.09C4.566 250.09 0 254.656 0 260.289L0 357.41C0 363.043 4.566 367.609 10.199 367.609C15.832 367.609 20.398 363.043 20.398 357.41L20.398 260.289C20.398 254.656 15.832 250.09 10.199 250.09Z" fill="#ffffff" fill-rule="nonzero" opacity="1" stroke="none"/>
<path d="M49.766 238.916C44.133 238.916 39.567 243.482 39.567 249.115L39.567 367.778C39.567 373.411 44.133 377.977 49.766 377.977C55.399 377.977 59.965 373.411 59.965 367.777L59.965 249.115C59.965 243.482 55.399 238.916 49.766 238.916Z" fill="#ffffff" fill-rule="nonzero" opacity="1" stroke="none"/>
<path d="M89.975 208.882C84.342 208.882 79.776 213.448 79.776 219.081L79.776 369.147C79.776 374.78 84.342 379.346 89.975 379.346C95.608 379.346 100.174 374.78 100.174 369.148L100.174 219.081C100.175 213.448 95.608 208.882 89.975 208.882Z" fill="#ffffff" fill-rule="nonzero" opacity="1" stroke="none"/>
<path d="M130.86 179.397C125.227 179.397 120.661 183.963 120.661 189.596L120.661 369.129C120.661 374.762 125.227 379.328 130.86 379.328C136.493 379.328 141.059 374.762 141.059 369.129L141.059 189.597C141.059 183.964 136.493 179.397 130.86 179.397Z" fill="#ffffff" fill-rule="nonzero" opacity="1" stroke="none"/>
<path d="M172.388 177.685C166.755 177.685 162.189 182.251 162.189 187.884L162.189 369.184C162.189 374.817 166.755 379.383 172.388 379.383C178.021 379.383 182.587 374.817 182.587 369.183L182.587 187.884C182.587 182.251 178.021 177.685 172.388 177.685Z" fill="#ffffff" fill-rule="nonzero" opacity="1" stroke="none"/>
<path d="M214.539 159.829C208.906 159.829 204.34 164.395 204.34 170.028L204.34 369.389C204.34 375.022 208.906 379.588 214.539 379.588C220.172 379.588 224.738 375.022 224.738 369.388L224.738 170.028C224.738 164.395 220.172 159.829 214.539 159.829Z" fill="#ffffff" fill-rule="nonzero" opacity="1" stroke="none"/>
<path d="M438.257 230.703C432.774 230.703 427.377 231.305 422.111 232.498C417.205 206.665 404.255 183.041 384.895 164.985C362.269 143.885 332.84 132.264 302.03 132.264C287.043 132.264 271.71 135.168 257.695 140.659C254.606 141.866 245.207 145.54 245.085 157.617C245.085 157.652 245.085 157.685 245.085 157.72L245.085 361.826C245.085 361.874 245.086 361.921 245.086 361.969C245.214 371.086 252.105 378.659 261.115 379.583C261.157 379.588 261.199 379.592 261.241 379.595C262.319 379.692 436.503 379.733 438.258 379.733C478.919 379.733 512 346.303 511.999 305.211C511.999 264.127 478.919 230.703 438.257 230.703ZM438.258 359.337C436.78 359.337 289.418 359.267 265.482 359.245L265.484 359.245L265.484 159.519C277.063 155.033 289.691 152.664 302.031 152.664C355.231 152.664 398.862 193.129 403.518 246.79C403.799 250.047 405.626 252.971 408.428 254.653C411.23 256.335 414.668 256.572 417.676 255.291C424.2 252.512 431.126 251.102 438.258 251.102C467.671 251.102 491.602 275.376 491.602 305.212C491.602 335.057 467.671 359.337 438.258 359.337Z" fill="#ffffff" fill-rule="nonzero" opacity="1" stroke="none"/>
<path d="M394.709 329.434L288.637 329.434C283.004 329.434 278.438 334 278.438 339.633C278.438 345.266 283.004 349.832 288.637 349.832L394.709 349.832C400.342 349.832 404.908 345.266 404.908 339.633C404.908 334 400.342 329.434 394.709 329.434Z" fill="#ffffff" fill-rule="nonzero" opacity="1" stroke="none"/>
<path d="M436.526 329.434L431.426 329.434C425.793 329.434 421.227 334 421.227 339.633C421.227 345.266 425.793 349.832 431.426 349.832L436.526 349.832C442.159 349.832 446.725 345.266 446.725 339.633C446.725 334 442.159 329.434 436.526 329.434Z" fill="#ffffff" fill-rule="nonzero" opacity="1" stroke="none"/>
</g>
</svg>
