<?xml version="1.0" encoding="UTF-8" standalone="no"?>
<!DOCTYPE svg PUBLIC "-//W3C//DTD SVG 1.1//EN" "http://www.w3.org/Graphics/SVG/1.1/DTD/svg11.dtd">
<!-- Created with Vectornator (http://vectornator.io/) -->
<svg height="100%" stroke-miterlimit="10" style="fill-rule:nonzero;clip-rule:evenodd;stroke-linecap:round;stroke-linejoin:round;" version="1.1" viewBox="0 0 490 490" width="100%" xml:space="preserve" xmlns="http://www.w3.org/2000/svg" xmlns:xlink="http://www.w3.org/1999/xlink">
<defs/>
<g id="Untitled">
<g opacity="1">
<path d="M380 70L110 70C49.346 70 0 119.346 0 180L0 310C0 370.654 49.346 420 110 420L380 420C440.654 420 490 370.654 490 310L490 180C490 119.346 440.654 70 380 70ZM470 310C470 359.626 429.626 400 380 400L110 400C60.374 400 20 359.626 20 310L20 180C20 130.374 60.374 90 110 90L380 90C429.626 90 470 130.374 470 180L470 310Z" fill="#ffffff" fill-rule="nonzero" opacity="1" stroke="none"/>
<path d="M323.846 235.769L203.846 185.769C200.761 184.483 197.235 184.824 194.453 186.68C191.671 188.534 190 191.657 190 195L190 295C190 298.344 191.671 301.466 194.453 303.32C196.12 304.432 198.054 305 200.001 305C201.302 305 202.609 304.746 203.846 304.231L323.846 254.231C327.573 252.678 330 249.037 330 245C330 240.963 327.572 237.322 323.846 235.769ZM210 280L210 210L294 245L210 280Z" fill="#ffffff" fill-rule="nonzero" opacity="1" stroke="none"/>
</g>
</g>
</svg>
