<?xml version="1.0" encoding="UTF-8" standalone="no"?>
<!DOCTYPE svg PUBLIC "-//W3C//DTD SVG 1.1//EN" "http://www.w3.org/Graphics/SVG/1.1/DTD/svg11.dtd">
<!-- Created with Vectornator (http://vectornator.io/) -->
<svg height="100%" stroke-miterlimit="10" style="fill-rule:nonzero;clip-rule:evenodd;stroke-linecap:round;stroke-linejoin:round;" version="1.1" viewBox="0 0 512 512" width="100%" xml:space="preserve" xmlns="http://www.w3.org/2000/svg" xmlns:xlink="http://www.w3.org/1999/xlink">
<defs/>
<clipPath id="ArtboardFrame">
<rect height="512" width="512" x="0" y="0"/>
</clipPath>
<g clip-path="url(#ArtboardFrame)" id="Untitled">
<path d="M507.413 93.394C503.704 90.884 498.806 91.011 495.239 93.721C491.627 96.456 485.765 98.808 479.101 100.737C497.346 79.436 497.724 65.196 497.509 61.844C497.264 58.043 494.968 54.676 491.524 53.053C488.065 51.441 484.014 51.823 480.937 54.058C459.044 69.966 437.248 73.431 424.146 73.818C403.809 54.476 377.442 43.874 349.406 43.874C289.135 43.874 240.099 93.558 240.099 154.625C240.099 159.569 240.426 164.503 241.068 169.396C138.176 167.645 54.665 69.155 53.803 68.119C51.619 65.502 48.303 64.078 44.874 64.405C41.476 64.701 38.43 66.64 36.726 69.594C7.721 119.916 25.44 164.319 43.231 190.921C41.394 189.829 39.889 188.824 38.859 188.064C35.716 185.727 31.522 185.339 28.007 187.069C24.486 188.804 22.236 192.355 22.17 196.278C21.384 244.533 43.934 272.768 65.844 288.768C63.472 289.095 61.247 290.227 59.578 292.044C57.068 294.768 56.185 298.62 57.267 302.166C72.461 351.901 109.308 369.518 133.64 375.753C84.42 412.891 13.083 400.769 12.292 400.62C7.562 399.789 2.828 402.283 0.884003 406.702C-1.055 411.115 0.272003 416.289 4.109 419.212C56.573 459.253 119.319 468.125 164.639 468.125C198.911 468.125 223.212 463.048 225.549 462.543C454.166 408.364 461.413 199.48 460.943 163.883C503.831 123.954 510.576 108.628 511.627 104.816C512.811 100.502 511.117 95.91 507.413 93.394ZM443.283 151.752C440.953 153.895 439.723 156.987 439.937 160.15C439.973 160.711 443.473 217.329 418.243 280.416C384.534 364.707 318.079 419.141 220.936 442.162C219.895 442.381 130.031 460.993 51.144 423.473C84.869 422.059 131.573 412.56 164.436 375.667C167.181 372.59 167.834 367.834 166.145 364.074C164.456 360.324 160.706 357.564 156.594 357.564C156.574 357.564 156.553 357.564 156.523 357.564C153.763 357.564 106.186 357.207 83.39 311.258C92.609 311.656 103.63 311.113 112.512 307.021C116.604 305.133 119.022 300.921 118.517 296.447C118.012 291.972 114.696 288.368 110.287 287.439C107.731 286.898 52.638 274.603 44.144 214.746C52.608 218.272 63.159 221.003 73.654 219.431C77.685 218.829 80.986 215.931 82.128 212.018C83.266 208.11 82.021 203.888 78.944 201.209C76.561 199.139 24.617 152.936 48.403 93.236C76.561 122.568 156.863 195.604 254.236 190.022C257.343 189.843 260.211 188.282 262.056 185.772C263.899 183.262 264.527 180.063 263.766 177.044C261.929 169.728 260.996 162.187 260.996 154.626C260.996 105.08 300.654 64.773 349.405 64.773C373.247 64.773 395.608 74.288 412.375 91.569C414.298 93.554 416.931 94.691 419.697 94.743C429.355 94.835 445.258 93.794 463.228 87.11C457.869 93.385 450.376 100.732 439.896 108.962C436.274 111.809 434.942 116.697 436.62 120.988C438.304 125.289 442.676 128.008 447.186 127.595C449.298 127.427 459.538 126.524 471.538 124.09C464.662 131.4 455.494 140.523 443.283 151.752Z" fill="#ffffff" fill-rule="nonzero" opacity="1" stroke="none"/>
</g>
</svg>
